{
	"asset":{
		"generator":"Khronos glTF Blender I/O v3.6.27",
		"version":"2.0"
	},
	"scene":0,
	"scenes":[
		{
			"name":"Scene",
			"nodes":[
				0
			]
		}
	],
	"nodes":[
		{
			"mesh":0,
			"name":"net_back",
			"rotation":[
				0,
				0,
				-0.7071068286895752,
				0.7071068286895752
			],
			"scale":[
				0.781117856502533,
				0.09515649080276489,
				0.781117856502533
			]
		}
	],
	"materials":[
		{
			"doubleSided":true,
			"name":"Material.001",
			"pbrMetallicRoughness":{
				"baseColorFactor":[
					0.800000011920929,
					0.800000011920929,
					0.800000011920929,
					1
				],
				"metallicFactor":0,
				"roughnessFactor":0.5
			}
		}
	],
	"meshes":[
		{
			"name":"Cylinder.004",
			"primitives":[
				{
					"attributes":{
						"POSITION":0,
						"NORMAL":1,
						"TEXCOORD_0":2
					},
					"indices":3
				},
				{
					"attributes":{
						"POSITION":4,
						"NORMAL":5,
						"TEXCOORD_0":6
					},
					"indices":7,
					"material":0
				}
			]
		}
	],
	"accessors":[
		{
			"bufferView":0,
			"componentType":5126,
			"count":22105,
			"max":[
				4.440284729003906,
				-0.9618620872497559,
				4.440284729003906
			],
			"min":[
				-4.440284252166748,
				-9.517866134643555,
				-4.440284252166748
			],
			"type":"VEC3"
		},
		{
			"bufferView":1,
			"componentType":5126,
			"count":22105,
			"type":"VEC3"
		},
		{
			"bufferView":2,
			"componentType":5126,
			"count":22105,
			"type":"VEC2"
		},
		{
			"bufferView":3,
			"componentType":5123,
			"count":102954,
			"type":"SCALAR"
		},
		{
			"bufferView":4,
			"componentType":5126,
			"count":1759,
			"max":[
				1.9405653476715088,
				-8.145752906799316,
				1.4260470867156982
			],
			"min":[
				-1.5640679597854614,
				-36.18297576904297,
				-1.4260470867156982
			],
			"type":"VEC3"
		},
		{
			"bufferView":5,
			"componentType":5126,
			"count":1759,
			"type":"VEC3"
		},
		{
			"bufferView":6,
			"componentType":5126,
			"count":1759,
			"type":"VEC2"
		},
		{
			"bufferView":7,
			"componentType":5123,
			"count":9024,
			"type":"SCALAR"
		}
	],
	"bufferViews":[
		{
			"buffer":0,
			"byteLength":265260,
			"byteOffset":0,
			"target":34962
		},
		{
			"buffer":0,
			"byteLength":265260,
			"byteOffset":265260,
			"target":34962
		},
		{
			"buffer":0,
			"byteLength":176840,
			"byteOffset":530520,
			"target":34962
		},
		{
			"buffer":0,
			"byteLength":205908,
			"byteOffset":707360,
			"target":34963
		},
		{
			"buffer":0,
			"byteLength":21108,
			"byteOffset":913268,
			"target":34962
		},
		{
			"buffer":0,
			"byteLength":21108,
			"byteOffset":934376,
			"target":34962
		},
		{
			"buffer":0,
			"byteLength":14072,
			"byteOffset":955484,
			"target":34962
		},
		{
			"buffer":0,
			"byteLength":18048,
			"byteOffset":969556,
			"target":34963
		}
	],
	"buffers":[
		{
			"byteLength":987604,
			"uri":"data:application/octet-stream;base64,"
		}
	]
}
