{
	"asset":{
		"generator":"Khronos glTF Blender I/O v3.6.27",
		"version":"2.0"
	},
	"scene":0,
	"scenes":[
		{
			"name":"Scene",
			"nodes":[
				0,
				2,
				3,
				4,
				5
			]
		}
	],
	"nodes":[
		{
			"mesh":0,
			"name":"blade",
			"scale":[
				0.40562278032302856,
				0.40562278032302856,
				0.40562278032302856
			],
			"translation":[
				-1.8885619640350342,
				0,
				0
			]
		},
		{
			"mesh":1,
			"name":"cylinder_bou",
			"rotation":[
				0,
				0,
				0.70710688829422,
				0.7071066498756409
			],
			"scale":[
				2.8404862880706787,
				5.129460334777832,
				0.46765607595443726
			]
		},
		{
			"children":[
				1
			],
			"mesh":2,
			"name":"net_back",
			"rotation":[
				0,
				0,
				-0.7071068286895752,
				0.7071068286895752
			],
			"scale":[
				0.781117856502533,
				0.09515649080276489,
				0.781117856502533
			],
			"translation":[
				-1.8885618448257446,
				0,
				0
			]
		},
		{
			"mesh":3,
			"name":"net_front",
			"translation":[
				-1.8885620832443237,
				0,
				0
			]
		},
		{
			"mesh":4,
			"name":"prop",
			"scale":[
				0.270290732383728,
				4.006713390350342,
				0.36529454588890076
			],
			"translation":[
				-1.8885620832443237,
				-4.280918121337891,
				0
			]
		},
		{
			"mesh":5,
			"name":"handle",
			"rotation":[
				0.7071068286895752,
				0,
				0,
				0.7071068286895752
			],
			"scale":[
				0.3491789996623993,
				0.06076396256685257,
				0.3491789996623993
			],
			"translation":[
				-0.4181263744831085,
				-6.529341697692871,
				0
			]
		}
	],
	"materials":[
		{
			"doubleSided":true,
			"name":"Material.001",
			"pbrMetallicRoughness":{
				"baseColorFactor":[
					0.800000011920929,
					0.800000011920929,
					0.800000011920929,
					1
				],
				"metallicFactor":0,
				"roughnessFactor":0.5
			}
		},
		{
			"doubleSided":true,
			"name":"Material",
			"pbrMetallicRoughness":{
				"baseColorFactor":[
					0.800000011920929,
					0.800000011920929,
					0.800000011920929,
					1
				],
				"metallicFactor":0,
				"roughnessFactor":0.5
			}
		}
	],
	"meshes":[
		{
			"name":"Cube.010",
			"primitives":[
				{
					"attributes":{
						"POSITION":0,
						"NORMAL":1,
						"TEXCOORD_0":2
					},
					"indices":3,
					"material":0
				}
			]
		},
		{
			"name":"Cube.017",
			"primitives":[
				{
					"attributes":{
						"POSITION":4,
						"NORMAL":5,
						"TEXCOORD_0":6
					},
					"indices":7
				}
			]
		},
		{
			"name":"Cylinder.004",
			"primitives":[
				{
					"attributes":{
						"POSITION":8,
						"NORMAL":9,
						"TEXCOORD_0":10
					},
					"indices":11
				},
				{
					"attributes":{
						"POSITION":12,
						"NORMAL":13,
						"TEXCOORD_0":14
					},
					"indices":15,
					"material":0
				}
			]
		},
		{
			"name":"Cylinder",
			"primitives":[
				{
					"attributes":{
						"POSITION":16,
						"NORMAL":17,
						"TEXCOORD_0":18
					},
					"indices":19
				},
				{
					"attributes":{
						"POSITION":20,
						"NORMAL":21,
						"TEXCOORD_0":22
					},
					"indices":23,
					"material":1
				}
			]
		},
		{
			"name":"Cube.012",
			"primitives":[
				{
					"attributes":{
						"POSITION":24,
						"NORMAL":25,
						"TEXCOORD_0":26
					},
					"indices":27
				}
			]
		},
		{
			"name":"Cylinder.008",
			"primitives":[
				{
					"attributes":{
						"POSITION":28,
						"NORMAL":29,
						"TEXCOORD_0":30
					},
					"indices":31
				}
			]
		}
	],
	"accessors":[
		{
			"bufferView":0,
			"componentType":5126,
			"count":4579,
			"max":[
				4.780051231384277,
				7.352358818054199,
				7.352358341217041
			],
			"min":[
				3.130903959274292,
				-7.352358341217041,
				-7.352358341217041
			],
			"type":"VEC3"
		},
		{
			"bufferView":1,
			"componentType":5126,
			"count":4579,
			"type":"VEC3"
		},
		{
			"bufferView":2,
			"componentType":5126,
			"count":4579,
			"type":"VEC2"
		},
		{
			"bufferView":3,
			"componentType":5123,
			"count":24960,
			"type":"SCALAR"
		},
		{
			"bufferView":4,
			"componentType":5126,
			"count":24,
			"max":[
				1.1558208465576172,
				-0.0684363842010498,
				1.1558204889297485
			],
			"min":[
				-1.1558198928833008,
				-0.2992367744445801,
				-1.1558204889297485
			],
			"type":"VEC3"
		},
		{
			"bufferView":5,
			"componentType":5126,
			"count":24,
			"type":"VEC3"
		},
		{
			"bufferView":6,
			"componentType":5126,
			"count":24,
			"type":"VEC2"
		},
		{
			"bufferView":7,
			"componentType":5123,
			"count":36,
			"type":"SCALAR"
		},
		{
			"bufferView":8,
			"componentType":5126,
			"count":22105,
			"max":[
				4.440284729003906,
				18.885042190551758,
				4.440284729003906
			],
			"min":[
				-4.44028377532959,
				10.329038619995117,
				-4.440284252166748
			],
			"type":"VEC3"
		},
		{
			"bufferView":9,
			"componentType":5126,
			"count":22105,
			"type":"VEC3"
		},
		{
			"bufferView":10,
			"componentType":5126,
			"count":22105,
			"type":"VEC2"
		},
		{
			"bufferView":11,
			"componentType":5123,
			"count":102954,
			"type":"SCALAR"
		},
		{
			"bufferView":12,
			"componentType":5126,
			"count":1759,
			"max":[
				1.9405653476715088,
				11.701151847839355,
				1.4260470867156982
			],
			"min":[
				-1.5640678405761719,
				-16.336071014404297,
				-1.4260470867156982
			],
			"type":"VEC3"
		},
		{
			"bufferView":13,
			"componentType":5126,
			"count":1759,
			"type":"VEC3"
		},
		{
			"bufferView":14,
			"componentType":5126,
			"count":1759,
			"type":"VEC2"
		},
		{
			"bufferView":15,
			"componentType":5123,
			"count":9024,
			"type":"SCALAR"
		},
		{
			"bufferView":16,
			"componentType":5126,
			"count":20994,
			"max":[
				3.2038493156433105,
				3.4296674728393555,
				3.4296681880950928
			],
			"min":[
				1.960192084312439,
				-3.42966890335083,
				-3.4296698570251465
			],
			"type":"VEC3"
		},
		{
			"bufferView":17,
			"componentType":5126,
			"count":20994,
			"type":"VEC3"
		},
		{
			"bufferView":18,
			"componentType":5126,
			"count":20994,
			"type":"VEC2"
		},
		{
			"bufferView":19,
			"componentType":5123,
			"count":98352,
			"type":"SCALAR"
		},
		{
			"bufferView":20,
			"componentType":5126,
			"count":1710,
			"max":[
				2.0116939544677734,
				3.4683852195739746,
				3.4683852195739746
			],
			"min":[
				1.7654303312301636,
				-3.4683854579925537,
				-3.4683854579925537
			],
			"type":"VEC3"
		},
		{
			"bufferView":21,
			"componentType":5126,
			"count":1710,
			"type":"VEC3"
		},
		{
			"bufferView":22,
			"componentType":5126,
			"count":1710,
			"type":"VEC2"
		},
		{
			"bufferView":23,
			"componentType":5123,
			"count":8058,
			"type":"SCALAR"
		},
		{
			"bufferView":24,
			"componentType":5126,
			"count":176,
			"max":[
				12.801377296447754,
				0.7645233273506165,
				6.644330024719238
			],
			"min":[
				-5.158080101013184,
				-0.8409503698348999,
				-6.644330024719238
			],
			"type":"VEC3"
		},
		{
			"bufferView":25,
			"componentType":5126,
			"count":176,
			"type":"VEC3"
		},
		{
			"bufferView":26,
			"componentType":5126,
			"count":176,
			"type":"VEC2"
		},
		{
			"bufferView":27,
			"componentType":5123,
			"count":264,
			"type":"SCALAR"
		},
		{
			"bufferView":28,
			"componentType":5126,
			"count":330,
			"max":[
				1.2223809957504272,
				7.024389743804932,
				0.17238053679466248
			],
			"min":[
				-1.2223807573318481,
				-7.024389743804932,
				-1
			],
			"type":"VEC3"
		},
		{
			"bufferView":29,
			"componentType":5126,
			"count":330,
			"type":"VEC3"
		},
		{
			"bufferView":30,
			"componentType":5126,
			"count":330,
			"type":"VEC2"
		},
		{
			"bufferView":31,
			"componentType":5123,
			"count":1038,
			"type":"SCALAR"
		}
	],
	"bufferViews":[
		{
			"buffer":0,
			"byteLength":54948,
			"byteOffset":0,
			"target":34962
		},
		{
			"buffer":0,
			"byteLength":54948,
			"byteOffset":54948,
			"target":34962
		},
		{
			"buffer":0,
			"byteLength":36632,
			"byteOffset":109896,
			"target":34962
		},
		{
			"buffer":0,
			"byteLength":49920,
			"byteOffset":146528,
			"target":34963
		},
		{
			"buffer":0,
			"byteLength":288,
			"byteOffset":196448,
			"target":34962
		},
		{
			"buffer":0,
			"byteLength":288,
			"byteOffset":196736,
			"target":34962
		},
		{
			"buffer":0,
			"byteLength":192,
			"byteOffset":197024,
			"target":34962
		},
		{
			"buffer":0,
			"byteLength":72,
			"byteOffset":197216,
			"target":34963
		},
		{
			"buffer":0,
			"byteLength":265260,
			"byteOffset":197288,
			"target":34962
		},
		{
			"buffer":0,
			"byteLength":265260,
			"byteOffset":462548,
			"target":34962
		},
		{
			"buffer":0,
			"byteLength":176840,
			"byteOffset":727808,
			"target":34962
		},
		{
			"buffer":0,
			"byteLength":205908,
			"byteOffset":904648,
			"target":34963
		},
		{
			"buffer":0,
			"byteLength":21108,
			"byteOffset":1110556,
			"target":34962
		},
		{
			"buffer":0,
			"byteLength":21108,
			"byteOffset":1131664,
			"target":34962
		},
		{
			"buffer":0,
			"byteLength":14072,
			"byteOffset":1152772,
			"target":34962
		},
		{
			"buffer":0,
			"byteLength":18048,
			"byteOffset":1166844,
			"target":34963
		},
		{
			"buffer":0,
			"byteLength":251928,
			"byteOffset":1184892,
			"target":34962
		},
		{
			"buffer":0,
			"byteLength":251928,
			"byteOffset":1436820,
			"target":34962
		},
		{
			"buffer":0,
			"byteLength":167952,
			"byteOffset":1688748,
			"target":34962
		},
		{
			"buffer":0,
			"byteLength":196704,
			"byteOffset":1856700,
			"target":34963
		},
		{
			"buffer":0,
			"byteLength":20520,
			"byteOffset":2053404,
			"target":34962
		},
		{
			"buffer":0,
			"byteLength":20520,
			"byteOffset":2073924,
			"target":34962
		},
		{
			"buffer":0,
			"byteLength":13680,
			"byteOffset":2094444,
			"target":34962
		},
		{
			"buffer":0,
			"byteLength":16116,
			"byteOffset":2108124,
			"target":34963
		},
		{
			"buffer":0,
			"byteLength":2112,
			"byteOffset":2124240,
			"target":34962
		},
		{
			"buffer":0,
			"byteLength":2112,
			"byteOffset":2126352,
			"target":34962
		},
		{
			"buffer":0,
			"byteLength":1408,
			"byteOffset":2128464,
			"target":34962
		},
		{
			"buffer":0,
			"byteLength":528,
			"byteOffset":2129872,
			"target":34963
		},
		{
			"buffer":0,
			"byteLength":3960,
			"byteOffset":2130400,
			"target":34962
		},
		{
			"buffer":0,
			"byteLength":3960,
			"byteOffset":2134360,
			"target":34962
		},
		{
			"buffer":0,
			"byteLength":2640,
			"byteOffset":2138320,
			"target":34962
		},
		{
			"buffer":0,
			"byteLength":2076,
			"byteOffset":2140960,
			"target":34963
		}
	],
	"buffers":[
		{
			"byteLength":2143036,
			"uri":"data:application/octet-stream;base64,"
		}
	]
}
